<svg width="16" height="16" viewBox="0 0 16 16" fill="none" xmlns="http://www.w3.org/2000/svg">
<path d="M15.9971 4.85136C15.9506 3.15739 15.2088 1.76505 14.1593 0.913843C12.8095 -0.182215 10.9484 -0.383313 9.40151 0.812527C8.89097 1.20858 8.41315 1.75661 8.00007 2.47657C7.58698 1.75661 7.10989 1.20858 6.59862 0.813294C5.05172 -0.383313 3.19136 -0.182215 1.84083 0.914611C0.790649 1.76582 0.049562 3.15815 0.00301682 4.85213C-0.0224376 5.7517 0.108471 6.75565 0.576104 7.77112C1.31065 9.36531 4.76154 12.9099 7.97316 15.9708L7.99861 16L8.00007 15.9985L8.00152 16L8.0277 15.9708C11.2386 12.9106 14.6888 9.36608 15.424 7.77112C15.8924 6.75565 16.0218 5.75093 15.9971 4.85136Z" fill="white" fill-opacity="0.48"/>
</svg>
