<svg width="16" height="16" viewBox="0 0 16 16" fill="none" xmlns="http://www.w3.org/2000/svg">
<path d="M5.82518 11.6526C7.20422 11.6526 8.50877 11.1745 9.5543 10.3005L10.0928 10.839L9.91381 11.018C9.81981 11.112 9.76731 11.2391 9.76731 11.3716C9.76731 11.5041 9.81981 11.6316 9.91381 11.7251L14.0424 15.8535C14.1399 15.951 14.2679 16 14.3959 16C14.524 16 14.652 15.951 14.7495 15.8535L15.8535 14.7494C15.9475 14.6554 16 14.5284 16 14.3958C16 14.2633 15.9475 14.1358 15.8535 14.0423L11.7249 9.91393C11.5294 9.71841 11.2134 9.71841 11.0178 9.91393L10.7998 10.132L10.2633 9.5954C11.1598 8.5433 11.6519 7.22368 11.6519 5.82655C11.6519 4.2704 11.0458 2.80726 9.94531 1.70666C8.84478 0.606057 7.38173 0 5.82568 0C4.26963 0 2.80659 0.606057 1.70655 1.70666C0.606019 2.80726 0 4.2699 0 5.82655C0 7.38269 0.606019 8.84583 1.70655 9.94593C2.80609 11.047 4.26913 11.6526 5.82518 11.6526ZM14.7925 14.3963L14.3955 14.7929L10.9738 11.3716L11.3709 10.975L14.7925 14.3963ZM2.41308 2.41423C3.3246 1.50264 4.53614 1.00059 5.82518 1.00059C7.11422 1.00059 8.32626 1.50264 9.23779 2.41423C10.1493 3.32581 10.6513 4.53793 10.6513 5.82705C10.6513 7.11617 10.1493 8.32778 9.23779 9.23937C8.32626 10.151 7.11422 10.653 5.82518 10.653C4.53614 10.653 3.3246 10.151 2.41308 9.23937C1.50155 8.32778 0.999531 7.11567 0.999531 5.82705C0.999531 4.53743 1.50105 3.32581 2.41308 2.41423Z" fill="white" fill-opacity="0.48"/>
</svg>
